<svg width="140" height="659" viewBox="0 0 140 659" fill="none" xmlns="http://www.w3.org/2000/svg">
<g clip-path="url(#clip0_277_1158)">
<path d="M-63 290.314C-8.41087 315.629 -8.1906 394.565 46.3985 419.88C69.0791 389.671 96.3664 358.346 119.047 328.137C94.8055 317.025 84.3233 292.053 72.3536 271.036C51.3933 270.606 27.7305 268.506 -4.57861 269.488L-63 290.314Z" fill="#B0B0B0"/>
<path d="M-25.1239 300.516C-23.5227 302.052 -21.9215 303.589 -20.4707 305.442L14.8872 284.936C13.603 283.55 12.3189 282.164 10.7177 280.628C-0.834602 287.38 -13.0209 293.831 -25.1239 300.516Z" fill="#E5E5E5"/>
<path d="M-9.01582 320.585L24.8914 298.226C23.7576 296.523 22.8575 294.737 21.5733 293.351C10.1876 300.57 -1.43179 307.873 -12.8175 315.092C-11.45 316.712 -10.2329 318.649 -9.01582 320.585" fill="#E5E5E5"/>
<path d="M0.202986 337.579C21.991 321.12 44.0126 304.578 65.8839 288.354C65.0671 286.801 64.2503 285.249 63.5168 283.93C41.2452 299.771 19.2906 315.762 -2.98094 331.602C-1.84714 333.305 -0.863731 335.325 0.202986 337.579" fill="#E5E5E5"/>
<path opacity="0.5" d="M-4.5791 269.488C10.87 276.623 17.109 308.902 24.7611 322.241C39.5363 311.969 57.5778 281.307 72.3531 271.036C51.3928 270.606 27.73 268.506 -4.5791 269.488Z" fill="#333333"/>
<path d="M31.3787 391.785C32.9799 393.321 34.4307 395.174 36.2655 396.627C45.6173 385.919 54.8858 374.977 64.2376 364.269C62.7197 362.966 61.4355 361.58 60.0681 359.96C50.4826 370.752 41.0475 381.227 31.3787 391.785" fill="#E5E5E5"/>
<path d="M-4.5791 269.488C10.87 276.623 19.6743 288.761 27.3263 302.099C42.1015 291.828 57.5778 281.307 72.3531 271.036C51.3928 270.606 27.73 268.506 -4.5791 269.488Z" fill="#B0B0B0"/>
</g>
<path fill-rule="evenodd" clip-rule="evenodd" d="M35.5198 516.247C51.2385 517.926 65.2138 519.447 66.5763 519.628C72.115 520.361 75.7049 524.871 74.6861 529.814C74.3115 531.629 70.8816 539.95 68.3519 545.179C65.8709 550.308 62.2125 556.935 59.1502 561.85C56.2373 566.524 46.5223 579.231 43.1449 582.784C30.0424 596.567 15.9357 605.912 0.031997 611.343C-6.7185 613.649 -2.85329 614.484 -44.591 601.701C-68.5893 594.352 -82.1144 590.016 -82.7596 589.467C-84.6248 587.88 -84.1838 585.183 -81.8879 584.136C-81.2242 583.833 -79.3675 583.302 -77.7618 582.956C-72.81 581.887 -67.5763 580.257 -61.9616 578.034C-40.9238 569.705 -24.1665 556.057 -13.8286 538.833C-11.2132 534.475 -7.91194 527.629 -6.39759 523.422C-4.18394 517.273 -0.658581 514.062 4.52886 513.47C6.20933 513.278 15.6037 514.12 35.5198 516.247ZM3.26482 520.853C1.82714 521.692 0.925294 523.226 -0.786308 527.747C-10.6118 553.698 -32.8933 574.626 -62.2335 585.459C-64.9351 586.457 -67.191 587.333 -67.2464 587.405C-67.3022 587.478 -53.6493 591.725 -36.9066 596.845L-6.46569 606.151L-3.69448 605.319C5.66661 602.507 17.3066 596.268 25.8332 589.493C42.2227 576.469 56.4963 556.659 65.9607 533.8C68.2425 528.288 68.3502 527.846 67.5935 527.077C67.191 526.668 58.0451 525.536 36.6431 523.245C19.9347 521.457 5.86386 520.028 5.3747 520.068C4.88548 520.108 3.93609 520.462 3.26482 520.853ZM83.3599 570.098C94.1589 573.392 103.472 576.43 104.055 576.849C105.181 577.659 105.634 579.267 105.121 580.633C104.698 581.761 98.0741 586.936 90.9995 591.665C67.4187 607.43 38.0351 618.55 6.58158 623.611L-3.06453 625.163L-39.3759 613.393C-60.9466 606.401 -75.5156 601.479 -75.2642 601.268C-75.0315 601.072 -73.0476 600.673 -70.8557 600.379L-66.8702 599.845L-35.7752 609.378L-4.68025 618.91L-2.19474 618.337C0.717522 617.665 7.49706 615.225 11.6156 613.366C30.3913 604.892 47.6731 589.08 61.0806 568.107C62.142 566.447 63.1712 564.869 63.368 564.599C63.6292 564.241 69.0118 565.722 83.3599 570.098ZM-30.7258 623.092L-3.33502 632.05L2.28233 631.321C5.37188 630.92 11.5254 629.85 15.9568 628.944C35.6829 624.908 50.2308 620.242 67.3907 612.447L73.5626 609.643L97.6389 615.847L121.715 622.051L60.2722 630.284L-1.17081 638.516L-38.5361 627.617C-59.0871 621.623 -75.9825 616.665 -76.0814 616.6C-76.1802 616.535 -72.1787 615.954 -67.189 615.308L-58.1167 614.134L-30.7258 623.092ZM-39.039 630.249L-2.50136 641.325L-1.91938 644.865C-1.59945 646.811 -1.41408 648.414 -1.50702 648.426C-1.60036 648.439 -18.1824 643.45 -38.3566 637.339L-75.0365 626.229L-75.6129 622.732C-75.9297 620.809 -76.0513 619.221 -75.8829 619.204C-75.7142 619.187 -59.1347 624.157 -39.039 630.249ZM123.261 628.359L123.723 631.85L62.1464 640.001L0.569549 648.152L0.107423 644.66L-0.354702 641.169L61.2221 633.018L122.799 624.867L123.261 628.359Z" fill="#B0B0B0"/>
<g clip-path="url(#clip1_277_1158)">
<path d="M64.0937 29.0254L57.5479 31.4423C55.9913 27.4015 53.8561 23.3983 50.5033 20.3157C48.0893 18.0868 44.0688 16.2157 39.6164 17.8208C39.4773 17.8644 39.3589 17.859 39.2154 17.9119C30.518 21.1231 31.2058 30.5607 34.5955 39.9166L31.2258 41.1608C29.6692 37.12 27.5341 33.1169 24.179 30.035C21.765 27.8062 17.7444 25.9351 13.2898 27.541C13.1529 27.5837 13.0345 27.5783 12.8911 27.6313C4.19597 30.8416 4.88374 40.2792 8.27112 49.636L4.90146 50.8801C3.34486 46.8393 1.2097 42.8362 -2.14536 39.7544C-4.55939 37.5255 -8.57992 35.6544 -13.0346 37.2603C-13.1714 37.3031 -13.2899 37.2977 -13.4356 37.3515C-22.1307 40.5618 -21.4429 49.9994 -18.0555 59.3562L-21.4252 60.6003C-22.9818 56.5595 -25.1169 52.5564 -28.4697 49.4737C-30.8837 47.2449 -34.9043 45.3738 -39.3589 46.9797C-39.4958 47.0224 -39.6142 47.017 -39.7576 47.07C-48.4527 50.2803 -47.765 59.7179 -44.3753 69.0738L-45.8256 69.6093C-50.6798 71.4015 -53.1982 76.6959 -51.4489 81.4339L-13.9425 183.018C-12.1924 187.758 -6.83763 190.146 -1.9835 188.353L107.936 147.77C112.79 145.977 115.308 140.683 113.558 135.943L76.0519 34.3588C74.3025 29.6207 68.9478 27.2332 64.0937 29.0254ZM91.5912 110.705L102.428 140.055C103.242 142.261 102.002 144.76 99.6639 145.623L75.5367 154.532C86.0561 143.313 91.428 127.01 91.5912 110.705ZM42.4438 23.1801C46.0713 22.6066 49.7497 30.6632 50.9702 33.8708L41.6535 37.3107C38.3944 28.3852 38.8315 23.7532 42.4438 23.1801V23.1801ZM16.1194 32.8995C19.7484 32.3228 23.4299 40.3809 24.6481 43.5893L15.3315 47.0292C12.07 38.1046 12.5026 33.4742 16.1194 32.8995ZM-10.2072 42.6197C-6.57819 42.043 -2.89674 50.1011 -1.67849 53.3095L-10.9952 56.7494C-14.2543 47.8239 -13.8218 43.1936 -10.2072 42.6197V42.6197ZM-37.3172 66.4679C-40.5764 57.5424 -40.1416 52.9113 -36.5293 52.3382C-32.9017 51.7646 -29.2211 59.8204 -28.0006 63.028L-37.3172 66.4679V66.4679ZM-9.38895 181.337L-46.8953 79.7527C-47.7098 77.5465 -46.472 75.0482 -44.136 74.1857L-42.4534 73.5644C-40.6664 77.1502 -38.0671 81.044 -34.8099 83.153C-34.7811 83.2381 -34.7753 83.3239 -34.745 83.4059C-33.4336 86.9577 -29.4118 88.7481 -25.7758 87.4056C-22.1329 86.0606 -20.2427 82.0848 -21.5532 78.5353C-22.8671 74.9766 -26.8881 73.1885 -30.5287 74.5326C-31.3256 74.8269 -32.0226 75.2653 -32.6343 75.7809C-33.6218 74.4587 -34.586 72.7372 -35.434 70.9728L-16.1313 63.8459C-14.2583 67.6017 -11.499 71.7185 -8.01956 73.7428C-6.64078 77.1688 -2.71409 78.8909 0.871872 77.5669C4.5102 76.2236 6.39813 72.2486 5.08759 68.6991C3.77369 65.1404 -0.242716 63.3506 -3.88104 64.6939C-4.78721 65.0285 -5.58143 65.5261 -6.25067 66.138C-7.25773 64.8049 -8.24674 63.0511 -9.10741 61.2526L10.1976 54.1249C12.069 57.8761 14.8251 61.9915 18.3023 64.0167C19.6804 67.4481 23.6148 69.1699 27.1917 67.8493C30.8391 66.5026 32.7202 62.5301 31.4097 58.9806C30.0958 55.4219 26.0839 53.6304 22.4388 54.9763C21.5371 55.3091 20.7452 55.8059 20.0782 56.417C19.0712 55.0838 18.0822 53.3301 17.2215 51.5316L36.5242 44.4047C38.3973 48.1605 41.1573 52.2796 44.6399 54.3053C46.021 57.7305 49.9483 59.4472 53.5206 58.1282C57.168 56.7816 59.0537 52.8074 57.7431 49.2579C56.4292 45.6992 52.4128 43.9094 48.7677 45.2552C47.866 45.5881 47.0741 46.0849 46.4049 46.6968C45.3978 45.3637 44.4111 43.6091 43.5504 41.8105L59.2079 36.0295C61.5462 35.1662 64.1129 36.2599 64.9274 38.4661L86.9494 98.1114C86.161 102.51 84.6445 106.745 82.4622 110.645L80.6187 105.652L-17.0423 141.709L-14.6927 148.073L81.2356 112.655C76.9814 119.211 70.0139 125.517 58.6504 129.712C59.3086 131.495 59.8496 133.192 60.3262 134.84L38.8354 142.775L41.185 149.138L61.8765 141.499C63.3052 149.705 62.4895 155.758 61.2512 159.803L-3.674 183.775C-6.01 184.637 -8.57438 183.543 -9.38895 181.337Z" fill="#7C7C7C" fill-opacity="0.5"/>
<path d="M-31.1406 103.525L66.5136 67.47L68.8631 73.8336L-28.7911 109.889L-31.1406 103.525Z" fill="#7C7C7C" fill-opacity="0.5"/>
<path d="M-24.0898 122.619L73.5643 86.5633L75.9139 92.9269L-21.7403 128.982L-24.0898 122.619Z" fill="#7C7C7C" fill-opacity="0.5"/>
</g>
<defs>
<clipPath id="clip0_277_1158">
<rect width="158.777" height="158.777" fill="white" transform="translate(-63 290.314) rotate(-19.6199)"/>
</clipPath>
<clipPath id="clip1_277_1158">
<rect width="155.33" height="155.33" fill="white" transform="translate(-72 53.8003) rotate(-20.2649)"/>
</clipPath>
</defs>
</svg>
